<svg xmlns="http://www.w3.org/2000/svg" viewBox="0 0 38.1 52"><defs><style>.cls-1{fill:#59595c}</style></defs><g id="Layer_2" data-name="Layer 2"><g id="Content"><path class="cls-1" d="M16.2 25.6h1.9v-8.2h-1.9v-2.1h4.2v10.3h1.7v2h-5.9zM8.2 49.6H5.9V52H4.4v-8h3.8c2 0 3.6.8 3.6 2.8s-1.6 3.6-3.6 2.8zm-2.3-1.4h2.3a1.4 1.4 0 0 0 0-2.8H5.9zM18.2 51.9h-6v-8h6v1.5h-4.5v1.8h4.4v1.4h-4.4v1.8h4.5zM21.9 45.3h-2.5v-1.4H26v1.4h-2.6V52h-1.5zM32.9 51.9h-6v-8h6v1.5h-4.5v1.8h4.4v1.4h-4.4v1.8h4.5zM36.9 26l-6.3-11-1.5.9 6.3 11c1.1 1.9 1.3 3.7.6 4.9a3.7 3.7 0 0 1-3.4 1.5h-2.4v-2.4L24.8 34l5.4 3.1v-2h2.4c2.3 0 4-.8 4.9-2.4a6.9 6.9 0 0 0-.6-6.7zM15.5 4.8c1.1-1.9 2.6-3.1 3.9-3.1a3.4 3.4 0 0 1 2.8 2l1.2 2-1.9 1.1 5.4 3.1V3.8L25 4.9l-1.2-2A5.1 5.1 0 0 0 19.5 0c-2 0-4 1.4-5.4 3.9l-6 10.3 1.5.9zM2.1 31.4a4 4 0 0 1 .4-3.8l1-1.6.5-.8 1.9 1.1v-6.2L.5 23.2l1.9 1.1-.4.8-1 1.7a5.4 5.4 0 0 0-.4 5.6c.9 1.6 3.2 2.8 6 2.8h12.1v-1.9H6.6c-2.2-.1-3.8-.7-4.5-1.9z"/></g></g></svg>