<svg xmlns="http://www.w3.org/2000/svg" viewBox="0 0 38.1 52"><defs><style>.cls-1{fill:#59595c}</style></defs><g id="Layer_2" data-name="Layer 2"><g id="Content"><path class="cls-1" d="M14.8 18.8c0-2.6 2.5-3.7 4.7-3.7s5.1 1 5.1 3.9-2.4 3.7-4.9 3.7c-1 0-2.7.3-2.7 1.6v1.1h7.6v2.2h-9.9v-3.3c0-2.8 2.6-3.7 5-3.7s2.6-.2 2.6-1.6-1.2-2-2.8-2-2.5.6-2.5 1.7zM9.9 52v-3.3h-4V52H4.4v-8h1.5v3.4h4v-3.5h1.5v8zM19.9 47.9a3.8 3.8 0 0 1-3.5 4.1h-3.7v-8h3.2a3.8 3.8 0 0 1 4 3.6v.3zm-5.7 2.6h1.7a2.6 2.6 0 0 0 0-5.1h-1.7zM24.7 49.6h-2.3V52h-1.5v-8h3.8a2.8 2.8 0 0 1 0 5.6zm-2.3-1.4h2.3a1.4 1.4 0 0 0 0-2.8h-2.3zM34.7 51.9h-6v-8h6v1.5h-4.5v1.8h4.4v1.4h-4.4v1.8h4.5zM36.9 26l-6.3-11-1.5.9 6.3 11c1.1 1.9 1.3 3.7.6 4.9a3.7 3.7 0 0 1-3.4 1.5h-2.4v-2.4L24.8 34l5.4 3.1v-2h2.4c2.3 0 4-.8 4.9-2.4a6.9 6.9 0 0 0-.6-6.7zM15.5 4.8c1.1-1.9 2.6-3.1 3.9-3.1a3.4 3.4 0 0 1 2.8 2l1.2 2-1.9 1.1 5.4 3.1V3.8L25 4.9l-1.2-2A5.1 5.1 0 0 0 19.5 0c-2 0-4 1.4-5.4 3.9l-6 10.3 1.5.9zM2.1 31.4a4 4 0 0 1 .4-3.8l1-1.6.5-.8 1.9 1.1v-6.2L.5 23.2l1.9 1.1-.4.8-1 1.7a5.4 5.4 0 0 0-.4 5.6c.9 1.6 3.2 2.8 6 2.8h12.1v-1.9H6.6c-2.2-.1-3.8-.7-4.5-1.9z"/></g></g></svg>